<svg className="h-full w-full" viewBox="0 0 44 45" fill="none" xmlns="http://www.w3.org/2000/svg">
<circle cx="22" cy="22.5" r="21.8167" fill="white" stroke="#075E54" stroke-width="0.366667"/>
<path d="M17.3249 30.3833C18.6999 31.2083 20.3499 31.6666 21.9999 31.6666C27.0416 31.6666 31.1666 27.5416 31.1666 22.5C31.1666 17.4583 27.0416 13.3333 21.9999 13.3333C16.9583 13.3333 12.8333 17.4583 12.8333 22.5C12.8333 24.15 13.2916 25.7083 14.0249 27.0833L13.2366 30.1138C13.1959 30.2703 13.1973 30.4347 13.2407 30.5904C13.2841 30.7461 13.3679 30.8876 13.4835 31.0005C13.5992 31.1134 13.7427 31.1937 13.8995 31.2333C14.0562 31.2728 14.2206 31.2702 14.376 31.2257L17.3249 30.3833Z" stroke="#075E54" stroke-width="1.375" stroke-miterlimit="10" stroke-linecap="round" stroke-linejoin="round"/>
<path d="M26.125 25.1107C26.125 25.2592 26.092 25.4122 26.0214 25.5607C25.9494 25.7142 25.8549 25.856 25.7409 25.9815C25.5383 26.2043 25.3156 26.3647 25.0626 26.4683C24.8151 26.5718 24.5465 26.625 24.2578 26.625C23.8361 26.625 23.386 26.526 22.9103 26.3243C22.4073 26.1063 21.9306 25.832 21.4894 25.5067C21.0095 25.1561 20.5566 24.77 20.1346 24.3517C19.717 23.9319 19.3318 23.4812 18.9823 23.0032C18.6612 22.5659 18.3894 22.0943 18.172 21.5971C17.974 21.125 17.875 20.6758 17.875 20.2478C17.875 19.9673 17.9245 19.6996 18.0235 19.4521C18.1225 19.2 18.2802 18.969 18.4992 18.7627C18.7632 18.5024 19.052 18.375 19.3582 18.375C19.4737 18.375 19.5892 18.3997 19.6927 18.4492C19.8 18.4987 19.8944 18.573 19.9696 18.6803L20.9284 20.0296C21.0018 20.1323 21.0567 20.2276 21.0934 20.3183C21.1301 20.4045 21.1512 20.4916 21.1512 20.5695C21.15 20.6735 21.1198 20.7751 21.0641 20.8628C21.0004 20.9701 20.9227 21.0685 20.8331 21.1553L20.5187 21.4816C20.4968 21.503 20.4796 21.5287 20.4683 21.5571C20.4569 21.5855 20.4516 21.616 20.4527 21.6466C20.4527 21.6787 20.4573 21.708 20.4655 21.741C20.4774 21.774 20.4903 21.7988 20.4985 21.8235C20.5718 21.9601 20.7002 22.137 20.8826 22.3515C21.0687 22.566 21.2667 22.7851 21.4812 23.0032C21.7048 23.2223 21.9193 23.424 22.1384 23.6101C22.3529 23.7907 22.5308 23.9144 22.671 23.9887L22.7462 24.0226C22.7791 24.0343 22.8139 24.0399 22.8488 24.0391C22.8805 24.0398 22.9119 24.0338 22.9411 24.0217C22.9703 24.0095 22.9966 23.9914 23.0184 23.9685L23.3319 23.6587C23.4355 23.556 23.5345 23.4781 23.6298 23.4277C23.7175 23.3718 23.8192 23.3419 23.9232 23.3415C24.0099 23.3428 24.0956 23.3612 24.1753 23.3956C24.266 23.4323 24.3613 23.4854 24.464 23.556L25.8317 24.5258C25.9308 24.5903 26.0096 24.6815 26.059 24.7889C26.1019 24.8908 26.1243 25.0001 26.125 25.1107Z" stroke="#075E54" stroke-width="1.375" stroke-miterlimit="10"/>
</svg>
